<svg width="64" height="64" viewBox="0 0 64 64" fill="none" xmlns="http://www.w3.org/2000/svg">
<path d="M31.8975 41.2581C41.4002 41.2581 50.4381 44.3119 58.6172 49.8147C50.0602 46.4594 41.0937 44.6741 31.8555 44.6741C22.6887 44.6741 13.79 46.4324 5.29297 49.7375C13.4417 44.2834 22.4393 41.2581 31.8975 41.2581Z" fill="#D55816"/>
<path d="M31.5439 19.6777C41.0404 28.3303 48.1177 41.0067 53.1152 53.3936C53.4663 54.2638 53.806 55.1331 54.1367 55.999L54.1338 55.9766C53.3112 50.5968 51.2053 41.756 47.5615 32.708C43.9184 23.6616 38.7325 14.3956 31.7432 8.17773L31.5439 8V19.6777Z" fill="#D55816"/>
<path d="M31.6943 19.6797C22.1988 28.3322 15.1222 41.0075 10.125 53.3936C9.7727 54.2668 9.43143 55.1389 9.09961 56.0078L9.10449 55.9766C9.92711 50.5968 12.0331 41.756 15.6768 32.708C19.3199 23.6617 24.5059 14.3956 31.4951 8.17773L31.6943 8V19.6797Z" fill="#EAAB8A"/>
</svg>
