<svg xmlns="http://www.w3.org/2000/svg" width="673" height="142" fill="none"><path fill="#D55816" d="M59.458 65.402c-.288 2.593-1.704 7.441-2.99 10.345-1.573 3.605-4.038 7.65-8.575 14.054-6.189 8.764-8.995 13.691-10.595 18.591-1.127 3.527-1.416 5.756-1.258 9.542.288 6.405 2.727 11.927 7.343 16.647 1.6 1.633 5.14 4.459 5.35 4.252.052-.052-.132-.908-.42-1.867-.813-2.645-1.075-4.797-1.075-8.401 0-7.26 1.81-11.798 8.995-22.506 4.746-7.08 5.638-8.505 7.002-11.228 4.3-8.427 4.353-16.88.21-24.995C62.343 67.658 60.008 64 59.72 64c-.053 0-.158.623-.263 1.4Zm10.054 31.04c5.978 12.861 6.22 18.209 6.395 20.328.9 10.429-4.799 17.65-13.886 22.194-.211.106-2.648 1.019-2.656 1.038-4.71-4.233-5.673-11.748-3.56-17.446 6.216-12.562 8.899-14.094 12.487-21.495.829-1.671 1.173-4.619 1.22-4.619Z"/><path fill="#D55816" d="M57.692 2.429c34.02 32.925 54.433 75.023 54.433 120.898 0 5.585-.303 11.114-.896 16.576-4.285-39.498-23.742-75.562-53.731-104.511l-1.435-1.373C25.259 63.197 5.248 99.778.895 139.903A153.596 153.596 0 0 1 0 123.327C0 76.723 21.066 34.018 56.063.867l1.63 1.562Z"/><path fill="#FAFAFA" d="M150.501 140.001V39.633h29.952c7.68 0 13.968 1.152 18.864 3.456 4.896 2.208 8.544 5.424 10.944 9.648 2.4 4.224 3.6 9.264 3.6 15.12 0 8.352-2.4 14.976-7.2 19.872-4.8 4.8-11.76 7.632-20.88 8.496-1.44.096-3.168.144-5.184.144h-17.424v43.632h-12.672Zm56.16 0-26.064-45.216 12.96-1.584 27.648 46.8h-14.544Zm-43.488-54.864h15.984c4.416 0 8.256-.576 11.52-1.728 3.264-1.152 5.808-2.976 7.632-5.472 1.92-2.496 2.88-5.808 2.88-9.936 0-4.224-.96-7.536-2.88-9.936-1.824-2.496-4.416-4.272-7.776-5.328-3.264-1.152-7.056-1.728-11.376-1.728h-15.984v34.128Zm111.839 54.864-.864-14.256v-30.24c0-5.472-1.536-9.696-4.608-12.672-2.976-2.976-7.44-4.464-13.392-4.464-3.84 0-7.44.816-10.8 2.448-3.36 1.536-6.624 4.176-9.792 7.92l-8.784-7.488c3.936-4.608 8.448-7.968 13.536-10.08 5.088-2.208 10.656-3.312 16.704-3.312 9.312 0 16.512 2.4 21.6 7.2 5.088 4.8 7.632 11.616 7.632 20.448v44.496h-11.232Zm-23.472 1.152c-5.376 0-10.08-.912-14.112-2.736-3.936-1.92-7.008-4.56-9.216-7.92-2.112-3.36-3.168-7.248-3.168-11.664 0-3.936.768-7.248 2.304-9.936 1.632-2.784 3.696-4.944 6.192-6.48 2.496-1.632 5.328-2.736 8.496-3.312 3.264-.672 6.672-1.008 10.224-1.008h23.04v9.216h-21.312c-2.112 0-4.32.192-6.624.576-2.304.384-4.32 1.2-6.048 2.448a11.021 11.021 0 0 0-3.024 3.6c-.672 1.44-1.008 3.12-1.008 5.04 0 3.744 1.392 6.72 4.176 8.928 2.784 2.208 6.528 3.312 11.232 3.312 3.936 0 7.488-.912 10.656-2.736 3.264-1.824 5.856-4.32 7.776-7.488 2.016-3.264 3.024-6.912 3.024-10.944l5.04 5.184c-.576 5.088-2.112 9.6-4.608 13.536-2.496 3.936-5.712 7.008-9.648 9.216-3.84 2.112-8.304 3.168-13.392 3.168Zm76.325 0c-6.432 0-12.096-1.584-16.992-4.752-4.8-3.264-8.544-7.68-11.232-13.248-2.688-5.568-4.032-11.808-4.032-18.72 0-7.488 1.44-13.968 4.32-19.44 2.88-5.472 6.768-9.696 11.664-12.672 4.896-2.976 10.32-4.464 16.272-4.464 4.512 0 8.544.912 12.096 2.736 3.552 1.728 6.528 4.128 8.928 7.2a25.262 25.262 0 0 1 5.184 10.08l-3.456 2.304V39.633h12.096v100.368h-12.096v-21.168l4.032 1.296c-1.248 4.128-3.12 7.776-5.616 10.944-2.496 3.168-5.52 5.664-9.072 7.488-3.552 1.728-7.584 2.592-12.096 2.592Zm2.016-11.232c4.32 0 8.112-1.056 11.376-3.168 3.264-2.208 5.808-5.232 7.632-9.072 1.824-3.84 2.736-8.256 2.736-13.248 0-4.992-.912-9.408-2.736-13.248-1.824-3.84-4.368-6.816-7.632-8.928-3.264-2.208-7.056-3.312-11.376-3.312-4.32 0-8.16 1.104-11.52 3.312-3.264 2.112-5.856 5.088-7.776 8.928-1.824 3.84-2.736 8.256-2.736 13.248 0 4.992.912 9.408 2.736 13.248 1.92 3.84 4.512 6.864 7.776 9.072 3.36 2.112 7.2 3.168 11.52 3.168Zm46.212 10.08V69.009h12.096v70.992h-12.096Zm6.048-85.824c-2.112 0-3.936-.768-5.472-2.304-1.536-1.632-2.304-3.504-2.304-5.616 0-2.208.72-4.032 2.16-5.472 1.536-1.536 3.408-2.304 5.616-2.304 2.208 0 4.08.768 5.616 2.304 1.536 1.44 2.304 3.264 2.304 5.472 0 2.112-.768 3.984-2.304 5.616-1.536 1.536-3.408 2.304-5.616 2.304Zm12.9 85.824 25.488-35.712-25.488-35.28h14.976l18.576 26.928 18.864-26.928h14.688l-25.632 35.28 25.632 35.712h-14.976l-18.576-27.216-18.864 27.216h-14.688Z"/><path fill="#D55816" d="m461.214 140.001 38.304-100.368h10.08l38.304 100.368h-13.824l-29.376-82.224-29.52 82.224h-13.968Zm21.312-23.616 3.888-11.376h36.288l4.176 11.376h-44.352Zm71.095 23.616V69.009h12.24v19.008l-3.168.72c.672-4.224 2.256-7.872 4.752-10.944 2.592-3.168 5.568-5.616 8.928-7.344 3.456-1.728 6.816-2.592 10.08-2.592 2.208 0 4.32.24 6.336.72s4.08 1.296 6.192 2.448l-6.048 10.944c-1.152-.576-2.544-1.056-4.176-1.44-1.536-.384-3.024-.576-4.464-.576-2.304 0-4.608.432-6.912 1.296-2.208.864-4.224 2.208-6.048 4.032-1.824 1.824-3.216 4.272-4.176 7.344-.384 1.344-.72 3.12-1.008 5.328-.192 2.112-.288 5.04-.288 8.784v33.264h-12.24Zm99.825 0-23.616-36.576-13.968 14.976v-15.696l32.688-33.696h15.696l-25.488 26.208 29.232 44.784h-14.544Zm-48.384 0V39.633h12.24v100.368h-12.24Z"/></svg>