<svg width="1282" height="373" viewBox="0 0 1282 373" fill="none" xmlns="http://www.w3.org/2000/svg">
<mask id="mask0_118_7" style="mask-type:alpha" maskUnits="userSpaceOnUse" x="0" y="0" width="1282" height="373">
<ellipse cx="641" cy="186.5" rx="641" ry="186.5" transform="matrix(-1 0 0 1 1282 0)" fill="url(#paint0_radial_118_7)"/>
</mask>
<g mask="url(#mask0_118_7)">
<path d="M130.88 286V90.84H193.32C208.813 90.84 221.413 93.1733 231.12 97.84C240.827 102.32 247.92 108.76 252.4 117.16C257.067 125.56 259.4 135.453 259.4 146.84C259.4 164.2 254.36 177.733 244.28 187.44C234.387 196.96 220.2 202.467 201.72 203.96C197.987 203.96 193.973 203.96 189.68 203.96C185.387 203.96 181.56 203.96 178.2 203.96H163.36V286H130.88ZM237.84 286L188.28 200.32L221.6 196.4L275.36 286H237.84ZM163.36 175.4H189.96C197.053 175.4 203.307 174.56 208.72 172.88C214.32 171.2 218.707 168.307 221.88 164.2C225.24 160.093 226.92 154.4 226.92 147.12C226.92 139.84 225.24 134.24 221.88 130.32C218.707 126.4 214.32 123.693 208.72 122.2C203.12 120.52 196.867 119.68 189.96 119.68H163.36V175.4ZM373.771 286L371.531 262.76V198.92C371.531 189.96 368.825 183.24 363.411 178.76C357.998 174.093 350.438 171.76 340.731 171.76C333.265 171.76 325.891 173.253 318.611 176.24C311.518 179.04 304.985 183.427 299.011 189.4L281.651 168.96C290.611 160.56 300.131 154.587 310.211 151.04C320.291 147.307 331.305 145.44 343.251 145.44C361.918 145.44 376.385 150.2 386.651 159.72C397.105 169.053 402.331 182.12 402.331 198.92V286H373.771ZM330.931 288.52C320.665 288.52 311.518 286.653 303.491 282.92C295.651 279.187 289.491 273.96 285.011 267.24C280.718 260.52 278.571 252.68 278.571 243.72C278.571 236.067 280.158 229.44 283.331 223.84C286.691 218.24 290.985 213.853 296.211 210.68C300.691 207.88 305.918 205.92 311.891 204.8C317.865 203.493 324.118 202.84 330.651 202.84H374.051V226.08H335.131C331.771 226.08 328.411 226.453 325.051 227.2C321.691 227.76 318.705 228.88 316.091 230.56C314.225 232.053 312.638 233.92 311.331 236.16C310.211 238.4 309.651 241.013 309.651 244C309.651 249.973 311.891 254.733 316.371 258.28C321.038 261.64 327.198 263.32 334.851 263.32C341.571 263.32 347.638 261.827 353.051 258.84C358.651 255.853 363.131 251.747 366.491 246.52C369.851 241.293 371.531 235.413 371.531 228.88L381.051 244.28C378.811 253.987 375.265 262.2 370.411 268.92C365.558 275.453 359.771 280.4 353.051 283.76C346.331 286.933 338.958 288.52 330.931 288.52ZM476.796 288.52C464.476 288.52 453.743 285.44 444.596 279.28C435.636 272.933 428.729 264.347 423.876 253.52C419.023 242.693 416.596 230.467 416.596 216.84C416.596 201.907 419.209 189.12 424.436 178.48C429.849 167.84 437.129 159.72 446.276 154.12C455.423 148.333 465.596 145.44 476.796 145.44C484.636 145.44 491.823 147.027 498.356 150.2C505.076 153.373 510.676 158.04 515.156 164.2C519.823 170.173 523.089 177.547 524.956 186.32L517.676 186.6V90.84H548.756V286H517.676V247.64L526.076 245.68C523.649 255.76 519.916 263.973 514.876 270.32C510.023 276.48 504.329 281.053 497.796 284.04C491.263 287.027 484.263 288.52 476.796 288.52ZM484.356 259.96C491.636 259.96 497.983 258.187 503.396 254.64C508.809 251.093 513.009 246.053 515.996 239.52C518.983 232.987 520.476 225.427 520.476 216.84C520.476 208.253 518.983 200.787 515.996 194.44C513.009 187.907 508.809 182.867 503.396 179.32C497.983 175.587 491.636 173.72 484.356 173.72C477.076 173.72 470.636 175.493 465.036 179.04C459.623 182.587 455.329 187.627 452.156 194.16C449.169 200.693 447.676 208.253 447.676 216.84C447.676 225.427 449.169 232.987 452.156 239.52C455.329 246.053 459.623 251.093 465.036 254.64C470.636 258.187 477.076 259.96 484.356 259.96ZM570.904 286V147.96H601.984V286H570.904ZM569.504 125.28V90.84H603.384V125.28H569.504ZM612.137 286L660.017 216.56L612.137 147.96H649.377L680.737 195.84L712.657 147.96H749.337L701.177 216.56L749.337 286H712.097L680.737 237.28L648.817 286H612.137Z" fill="white"/>
<path d="M744.627 286L821.907 90.84H846.547L923.547 286H888.267L834.227 138.16L780.187 286H744.627ZM792.787 245.12L802.867 216.28H865.307L875.947 245.12H792.787ZM930.864 286V147.96H962.224V185.2L956.344 186.04C957.277 178.013 959.984 171.013 964.464 165.04C968.944 158.88 974.357 154.12 980.704 150.76C987.237 147.213 993.677 145.44 1000.02 145.44C1004.5 145.44 1008.8 146 1012.9 147.12C1017.01 148.24 1021.3 150.107 1025.78 152.72L1010.66 180.72C1008.61 179.413 1005.9 178.387 1002.54 177.64C999.371 176.707 996.291 176.24 993.304 176.24C989.384 176.24 985.464 176.987 981.544 178.48C977.811 179.973 974.451 182.307 971.464 185.48C968.477 188.467 966.237 192.387 964.744 197.24C963.811 199.853 963.064 203.307 962.504 207.6C962.131 211.707 961.944 217.493 961.944 224.96V286H930.864ZM1127.96 286L1086.24 220.2L1062.72 246.24V206.76L1119 147.96H1158.76L1108.92 199.48L1164.92 286H1127.96ZM1034.44 286V90.84H1065.52V286H1034.44Z" fill="#D55816"/>
</g>
<defs>
<radialGradient id="paint0_radial_118_7" cx="0" cy="0" r="1" gradientTransform="matrix(-7.53972 215.14 -739.437 -4.01629 536.264 141.397)" gradientUnits="userSpaceOnUse">
<stop/>
<stop offset="1" stop-color="#666666" stop-opacity="0"/>
</radialGradient>
</defs>
</svg>
